<?xml version="1.0" encoding="utf-8"?>
<!-- Generator: Adobe Illustrator 23.0.4, SVG Export Plug-In . SVG Version: 6.00 Build 0)  -->
<svg version="1.1" id="Layer_1" xmlns="http://www.w3.org/2000/svg" xmlns:xlink="http://www.w3.org/1999/xlink" x="0px" y="0px"
	 viewBox="0 0 1000 103.74" style="enable-background:new 0 0 1000 103.74;" xml:space="preserve">
<style type="text/css">
	.st0{fill:#282E36;}
</style>
<g>
	<path class="st0" d="M34.07,101.77L0,0h22.54l20.72,68.45L66.64,0H79.7l23.8,68.45L123.95,0h22.54l-33.95,101.77H95.14L73.31,35.13
		l-21.83,66.64H34.07z"/>
	<path class="st0" d="M217.12,71.06h-56.92c2.76,10.62,10.15,15.99,22.11,15.99c8.21,0,17.96-3.16,24.47-7.58l7.78,13.62
		c-9.59,6.87-20.61,10.34-33.12,10.34c-13.34,0-23.53-3.87-30.59-11.45c-7.11-7.58-10.58-16.94-10.58-27.83
		c0-11.45,3.63-20.8,10.97-28.23c7.38-7.42,16.82-11.17,28.5-11.17c10.97,0,20.17,3.43,27.28,10.18s10.7,15.83,10.7,27.55
		C217.79,65.13,217.51,68.02,217.12,71.06z M160.19,56.61h38.53c-1.82-9.79-8.92-15.71-18.91-15.71
		C169.94,40.9,162.56,46.82,160.19,56.61z"/>
	<path class="st0" d="M353.43,97.35c-6.28,4.14-13.62,6.2-22.38,6.2c-17.41,0-26.45-10.18-26.45-29.61V42.95h-12.4V26.69h12.51V6.99
		l19.46-6.87v26.57h25.03v16.26h-25.03v29.73c0,8.8,3.63,13.22,10.7,13.22c3.75,0,8.05-1.22,12.67-3.87L353.43,97.35z"/>
	<path class="st0" d="M434.55,71.06h-56.88c2.76,10.62,10.15,15.99,22.11,15.99c8.21,0,17.96-3.16,24.47-7.58l7.78,13.62
		c-9.59,6.87-20.61,10.34-33.12,10.34c-13.34,0-23.53-3.87-30.59-11.45c-7.11-7.58-10.58-16.94-10.58-27.83
		c0-11.45,3.63-20.8,10.97-28.23c7.38-7.42,16.82-11.17,28.5-11.17c10.97,0,20.17,3.43,27.28,10.18s10.7,15.83,10.7,27.55
		C435.26,65.13,434.98,68.02,434.55,71.06z M377.66,56.61h38.53c-1.82-9.79-8.92-15.71-18.91-15.71
		C387.38,40.9,380.03,46.82,377.66,56.61z"/>
	<path class="st0" d="M448.76,101.77V26.72h18.79v10.07c4.58-8.13,11.57-12.12,20.88-12.12c3.08,0,6.12,0.55,9.2,1.66l-1.66,18.59
		c-3.2-0.95-6.28-1.5-9.04-1.5c-11.13,0-18.51,7.15-18.51,22.74v35.65h-19.66V101.77z"/>
	<path class="st0" d="M507.3,101.77V26.72h19.19v10.46c4.03-7.3,13.07-12.51,23.8-12.51c8.21,0,15.32,2.76,21,8.13
		c5.68,5.37,8.65,13.07,8.65,23.13v45.83h-19.62V61.15c0-11.96-6.4-18.59-15.99-18.59c-10.42,0-17.41,7.86-17.41,18.99v40.23H507.3z
		"/>
	<path class="st0" d="M654.51,26.72h18.63v75.04h-18.63v-8.68c-6.55,7.03-14.61,10.46-24.2,10.46c-10.86,0-19.9-3.71-27-11.29
		c-7.11-7.58-10.58-17.09-10.58-28.38s3.63-20.65,10.7-27.95c7.11-7.42,16.15-11.17,26.84-11.17c9.47,0,17.53,3.59,24.2,10.9v-8.92
		H654.51z M648.67,48.87c-4.03-4.26-9.04-6.32-15.16-6.32c-6.28,0-11.25,2.05-15.32,6.32c-3.91,4.26-5.84,9.36-5.84,15.28
		c0,6.04,1.93,11.17,6,15.44c4.07,4.26,9.04,6.32,15.16,6.32c6.12,0,11.13-2.05,15.16-6.32c4.03-4.26,6.12-9.36,6.12-15.44
		C654.78,58.27,652.69,53.17,648.67,48.87z"/>
	<path class="st0" d="M698.05,92.41c-7.5-7.3-11.25-16.82-11.25-28.23c0-11.45,3.75-20.92,11.41-28.23
		c7.66-7.42,17.41-11.17,29.37-11.17c15.44,0,29.09,7.58,35.33,20.92l-15.71,8.53c-4.58-7.58-11.13-11.45-19.34-11.45
		c-6.28,0-11.41,2.05-15.43,6.2c-4.03,3.99-6.12,9.08-6.12,15.16c0,6.2,1.93,11.29,6,15.44c4.03,3.99,9.2,6.04,15.16,6.04
		c7.93,0,15.99-4.7,19.34-11.29l15.87,9.24c-6.55,12.12-20.01,19.82-35.61,19.82C715.18,103.43,705.55,99.72,698.05,92.41z"/>
	<path class="st0" d="M774.71,101.77V7.03l19.07-6.87v36.36c4.03-6.75,13.22-11.84,23.92-11.84c8.21,0,15.16,2.76,20.88,8.13
		c5.68,5.37,8.61,13.07,8.61,23.13v45.83h-19.62V61.15c0-11.96-6.28-18.59-15.87-18.59c-10.42,0-17.41,7.86-17.41,18.99v40.23
		H774.71z"/>
	<path class="st0" d="M936.92,71.06h-56.88c2.76,10.62,10.15,15.99,22.11,15.99c8.21,0,17.96-3.16,24.47-7.58l7.78,13.62
		c-9.59,6.87-20.61,10.34-33.12,10.34c-13.34,0-23.53-3.87-30.59-11.45c-7.11-7.58-10.58-16.94-10.58-27.83
		c0-11.45,3.63-20.8,10.97-28.23c7.38-7.42,16.82-11.17,28.5-11.17c10.97,0,20.17,3.43,27.28,10.18s10.7,15.83,10.7,27.55
		C937.63,65.13,937.35,68.02,936.92,71.06z M880.03,56.61h38.53c-1.82-9.79-8.92-15.71-18.91-15.71
		C889.74,40.9,882.4,46.82,880.03,56.61z"/>
	<path class="st0" d="M951.13,101.77V26.72h18.79v10.07c4.58-8.13,11.57-12.12,20.88-12.12c3.08,0,6.12,0.55,9.2,1.66l-1.66,18.59
		c-3.2-0.95-6.28-1.5-9.04-1.5c-11.13,0-18.51,7.15-18.51,22.74v35.65h-19.66V101.77z"/>
	<path class="st0" d="M273.57,60.6c-2.09-1.11-8.21-3.59-18.24-7.3c-4.46-1.5-6.67-3.71-6.67-6.87c0-3.43,3.47-6.32,8.61-6.32
		c6.24,0,12.08,2.49,17.37,7.42l8.29-13.93c-6.71-6.2-15.12-9.32-25.11-9.32c-8.49,0-15.44,2.05-20.61,6.32
		c-5.13,4.26-7.78,9.63-7.78,16.26c0,8.8,4.3,15.28,13.07,19.42c1.66,0.83,4.86,2.21,9.75,3.99c4.86,1.78,7.78,2.88,9.04,3.43
		c3.63,1.66,5.41,3.87,5.41,6.47c0,4.26-4.46,7.3-10.42,7.3c-7.66,0-16.5-2.33-21.95-8.76l-8.57,14.41
		c7.46,8.17,18.2,10.62,30.4,10.62c9.04,0,16.42-2.21,21.83-6.75c5.57-4.54,8.33-10.34,8.33-17.37
		C286.4,71.33,282.05,65.02,273.57,60.6z"/>
</g>
</svg>
